<svg xmlns="http://www.w3.org/2000/svg" viewBox="0 0 60 60" id="store"><g data-name="Layer 2"><g data-name="Layer 1"><path d="M59.94 29.66A47.32 47.32 0 0 1 59 41.23c-2.15 10.15-8.66 16.68-19.75 18.1a62.49 62.49 0 0 1-22-.68 19.75 19.75 0 0 1-14.48-12A36 36 0 0 1 .06 32.46 61.91 61.91 0 0 1 1 18.6C3.14 9.1 7.93 3.82 17.65 1.48a52.48 52.48 0 0 1 24.73 0C52.12 3.82 56.94 9.12 59 18.59a40.79 40.79 0 0 1 .94 11.07Z" data-name="Path 4702"></path><path fill="#fff" d="M45.86 21.91H39.7c-.68 0-.71 0-.73-.72A9 9 0 0 0 21 21.14c-.06.71-.06.71-.76.71h-6.16c-.47 0-.64.17-.56.62 0 .26.06.52.09.78.29 2.84 1.56 14.27 1.78 17.15a7.5 7.5 0 0 0 7.48 7c2.37-.06 11.94 0 14.36 0a7.18 7.18 0 0 0 7.17-6c.38-2.29 1.6-14.85 2-18.8.14-.6-.07-.69-.54-.69Zm-11.63-.06h-8.75c-.48 0-.6-.2-.56-.64a5.24 5.24 0 0 1 4.92-4.77 5.18 5.18 0 0 1 5.26 4.3s0 .07 0 .11c.12.93.05 1-.87 1Z"></path></g></g></svg>